######## ######## ######## ##          ######## ########  ######## ######## 
##       ##       ##       ##          ##       ##     ## ##       ##       
##       ##       ##       ##          ##       ##     ## ##       ##       
######   ######   ######   ##          ######   ########  ######   ######   
##       ##       ##       ##          ##       ##   ##   ##       ##       
##       ##       ##       ##          ##       ##    ##  ##       ##       
##       ######## ######## ########    ##       ##     ## ######## ########  

 Genre:Action | Adventure | Drama 
 Language:English
 IMDb:  http://www.imdb.com/title/tt1414378/
 Source:Bluray


 Format : MPEG-4
 Format profile : Base Media
 Codec ID : isom
 File size : 938 MiB
 Duration : 1h 42mn
 Overall bit rate : 1 284 Kbps


 Video
 Format profile : High@L4.1
 Format settings, CABAC : Yes
 Format settings, ReFrames : 3 frames
 Codec ID : avc1
 Codec ID/Info : Advanced Video Coding
 Duration : 1h 42mn
 Bit rate mode : Variable
 Bit rate : 846 Kbps
 Maximum bit rate : 4 360 Kbps
 Width : 720 pixels
 Height : 304 pixels
 Display aspect ratio : 2.35:1
 Frame rate mode : Constant
 Frame rate : 23.976 fps
 Color space : YUV
 Chroma subsampling : 4:2:0
 Bit depth : 8 bits
 Scan type : Progressive
 Bits/(Pixel*Frame) : 0.161
 Stream size : 610 MiB (65%)
 Writing library : x264


 Audio
 ID : 2
 Format : AAC
 Format/Info : Advanced Audio Codec
 Format version : Version 4
 Format profile : LC
 Format settings, SBR : No
 Codec ID : 40
 Duration : 1h 42mn
 Bit rate mode : Variable
 Bit rate : 445 Kbps
 Maximum bit rate : 582 Kbps
 Channel(s) : 6 channels
 Channel positions : Front: L C R, Side: L R, LFE
 Sampling rate : 48.0 KHz
 Stream size : 325 MiB (35%)


 Plot:
 An ex-Boer war guerrilla in New Zealand is sent out to bring back a Maori  accused of killing a British soldier.


Screen Shots:
 
http://leetleech.org/images/43173705465111274635.png
 
http://leetleech.org/images/76455656835169617655.png
 
http://leetleech.org/images/36620694107052042545.png
 
http://leetleech.org/images/53660198104907265603.png
 
http://leetleech.org/images/91784600952768984672.png

######## ######## ######## ##          ######## ########  ######## ######## 
##       ##       ##       ##          ##       ##     ## ##       ##       
##       ##       ##       ##          ##       ##     ## ##       ##       
######   ######   ######   ##          ######   ########  ######   ######   
##       ##       ##       ##          ##       ##   ##   ##       ##       
##       ##       ##       ##          ##       ##    ##  ##       ##       
##       ######## ######## ########    ##       ##     ## ######## ######## 